<?xml version="1.0" encoding="UTF-8" standalone="no"?><!DOCTYPE svg PUBLIC "-//W3C//DTD SVG 1.1//EN" "http://www.w3.org/Graphics/SVG/1.1/DTD/svg11.dtd"><svg width="100%" height="100%" viewBox="0 0 600 600" version="1.1" xmlns="http://www.w3.org/2000/svg" xmlns:xlink="http://www.w3.org/1999/xlink" xml:space="preserve" xmlns:serif="http://www.serif.com/" style="fill-rule:evenodd;clip-rule:evenodd;stroke-linejoin:round;stroke-miterlimit:2;"><circle cx="300" cy="300" r="300" style="fill:#0066a5;"/><path d="M315.738,133.26c-88.895,0 -161.217,72.323 -161.217,161.218c0,8.096 6.562,14.656 14.656,14.656l0,87.938c-8.094,0 -14.656,6.563 -14.656,14.656c0,8.095 6.562,14.656 14.656,14.656l293.124,0c8.094,0 14.656,-6.562 14.656,-14.656l0,-117.25c0.001,-88.895 -72.323,-161.218 -161.219,-161.218Z" style="fill:#d6e5f6;fill-rule:nonzero;"/><path d="M257.114,279.822l-87.936,0c-8.094,0 -14.656,6.562 -14.656,14.656l0,117.25c0,8.095 6.562,14.656 14.656,14.656l161.218,0l0,-14.656l0,-19.061l0,-39.562c0,-40.408 -32.874,-73.283 -73.282,-73.283Z" style="fill:#a4c6ec;fill-rule:nonzero;"/><path d="M169.178,294.478c-32.378,0 -58.625,26.25 -58.625,58.627l0,73.28l117.249,0l0,-73.28c0,-32.377 -26.247,-58.627 -58.624,-58.627Z" style="fill:#385c8e;fill-rule:nonzero;"/><path d="M330.396,133.933l0,292.452l131.906,0c8.094,0 14.656,-6.562 14.656,-14.656l0,-117.251c0,-83.954 -64.509,-153.113 -146.562,-160.545Z" style="fill:#a4c6ec;fill-rule:nonzero;"/><path d="M169.178,279.822c-40.408,0 -73.282,32.875 -73.282,73.283l0,58.624c0,8.095 6.562,14.656 14.656,14.656l14.656,0l0,-73.28c0,-24.244 19.725,-43.971 43.969,-43.971c24.244,0 43.969,19.727 43.969,43.971l0,73.28l14.656,0c8.094,0 14.656,-6.562 14.656,-14.656l0,-58.624c0,-40.408 -32.874,-73.283 -73.28,-73.283Z" style="fill:#d6e5f6;fill-rule:nonzero;"/></svg>